<svg width="485" height="247" viewBox="0 0 485 247" fill="none" xmlns="http://www.w3.org/2000/svg">
<g clip-path="url(#clip0_2_46)">
<path d="M335.551 217.499L329.905 226.348L333.193 214.828C326.25 207.604 316.637 202.32 316.637 202.32C316.637 202.32 304.8 221.714 307.986 233.645C311.172 245.575 319.398 247.852 328.174 245.523C336.949 243.194 342.951 237.14 339.765 225.21C339.056 222.555 337.516 219.948 335.551 217.499Z" fill="#F2F2F2"/>
<path d="M328.08 227.23L328.238 227.818C330.028 234.663 330.296 240.303 329.03 244.661C329.012 244.725 328.991 244.787 328.974 244.85L328.679 244.763L328.396 244.676C329.83 239.953 329.19 233.985 327.63 228.014C327.582 227.821 327.532 227.625 327.477 227.431C326.795 224.909 325.958 222.397 325.047 219.983C324.979 219.795 324.906 219.606 324.834 219.416C323.615 216.235 322.284 213.241 321.05 210.659C320.964 210.476 320.875 210.294 320.786 210.115C318.681 205.755 316.896 202.665 316.495 201.983C316.447 201.899 316.419 201.853 316.413 201.842L316.67 201.69L316.672 201.686L316.931 201.533C316.937 201.544 317.031 201.697 317.195 201.984C317.816 203.054 319.463 205.968 321.363 209.884C321.447 210.061 321.537 210.243 321.623 210.426C322.626 212.52 323.69 214.875 324.701 217.375C324.956 218.002 325.2 218.624 325.433 219.238C325.509 219.427 325.581 219.617 325.65 219.804C326.635 222.414 327.445 224.889 328.08 227.23Z" fill="white"/>
<path d="M321.363 209.884C321.174 209.963 320.982 210.041 320.786 210.115C320.254 210.317 319.712 210.491 319.162 210.637C316.819 211.262 314.364 211.355 311.98 210.909C311.899 211.096 311.817 211.283 311.734 211.474C314.248 211.966 316.842 211.879 319.317 211.219C319.905 211.063 320.483 210.876 321.05 210.659C321.244 210.586 321.435 210.507 321.623 210.426C323.176 209.767 324.62 208.876 325.905 207.784C325.737 207.657 325.572 207.533 325.411 207.41C324.191 208.429 322.827 209.263 321.363 209.884Z" fill="white"/>
<path d="M325.433 219.238C325.235 219.303 325.035 219.363 324.834 219.416C324.773 219.435 324.709 219.452 324.648 219.469C322.107 220.143 319.441 220.195 316.877 219.62C314.312 219.045 311.925 217.86 309.919 216.167C309.848 216.37 309.777 216.572 309.71 216.777C311.784 218.479 314.235 219.663 316.86 220.233C319.484 220.802 322.207 220.74 324.803 220.051C324.885 220.029 324.967 220.007 325.048 219.983C325.251 219.926 325.451 219.866 325.65 219.804C328.725 218.817 331.451 216.969 333.5 214.479C333.36 214.332 333.221 214.185 333.079 214.038C331.092 216.476 328.435 218.284 325.433 219.238Z" fill="white"/>
<path d="M328.08 227.23C327.881 227.302 327.679 227.368 327.477 227.431C327.261 227.498 327.043 227.562 326.824 227.62C323.41 228.522 319.795 228.297 316.519 226.979C313.244 225.661 310.485 223.321 308.655 220.309C308.587 220.58 308.517 220.847 308.455 221.117C310.404 224.089 313.243 226.373 316.568 227.645C319.894 228.917 323.537 229.112 326.98 228.202C327.199 228.144 327.417 228.083 327.63 228.014C327.836 227.953 328.037 227.887 328.238 227.818C332.28 226.401 335.631 223.504 337.613 219.716C337.494 219.516 337.367 219.323 337.239 219.126C335.36 222.912 332.074 225.819 328.08 227.23Z" fill="white"/>
<path d="M306.461 15.9651L300.815 24.8148L304.104 13.2941C297.16 6.07075 287.547 0.786591 287.547 0.786591C287.547 0.786591 275.71 20.181 278.896 32.1112C282.082 44.0414 290.308 46.3188 299.084 43.9896C307.859 41.6604 313.861 35.6067 310.675 23.6766C309.966 21.0211 308.426 18.4143 306.461 15.9651Z" fill="#F2F2F2"/>
<path d="M298.991 25.6969L299.148 26.285C300.938 33.1297 301.206 38.7699 299.94 43.1275C299.922 43.1913 299.901 43.253 299.884 43.3169L299.589 43.23L299.306 43.143C300.74 38.4196 300.1 32.4511 298.54 26.4805C298.492 26.2876 298.443 26.0918 298.388 25.8975C297.705 23.3759 296.868 20.8639 295.958 18.4494C295.889 18.2619 295.816 18.0723 295.744 17.8827C294.525 14.702 293.194 11.7071 291.961 9.12584C291.874 8.94299 291.785 8.76094 291.697 8.58178C289.591 4.22124 287.806 1.13171 287.405 0.44943C287.357 0.365376 287.329 0.319773 287.323 0.30891L287.58 0.156675L287.582 0.152985L287.841 -3.05176e-05C287.847 0.0108474 287.941 0.163617 288.105 0.450502C288.726 1.52038 290.373 4.43444 292.273 8.35089C292.358 8.52791 292.447 8.70999 292.533 8.89281C293.536 10.9865 294.6 13.3417 295.611 15.8415C295.867 16.469 296.111 17.0901 296.344 17.7048C296.419 17.8936 296.492 18.0832 296.56 18.2707C297.545 20.8806 298.355 23.356 298.991 25.6969Z" fill="white"/>
<path d="M292.273 8.35093C292.084 8.42908 291.893 8.50797 291.696 8.58181C291.164 8.78319 290.622 8.95725 290.072 9.10333C287.729 9.72863 285.274 9.82179 282.89 9.37596C282.809 9.56279 282.727 9.74964 282.644 9.94016C285.158 10.4324 287.752 10.3454 290.228 9.68557C290.815 9.52956 291.393 9.34272 291.961 9.12584C292.154 9.05276 292.345 8.97385 292.533 8.89282C294.086 8.23326 295.53 7.34234 296.815 6.25055C296.647 6.12376 296.482 5.9991 296.321 5.87659C295.101 6.89562 293.737 7.7294 292.273 8.35093Z" fill="white"/>
<path d="M296.344 17.7048C296.145 17.7699 295.945 17.8292 295.744 17.8827C295.683 17.9018 295.619 17.9189 295.558 17.9352C293.018 18.6094 290.352 18.6613 287.787 18.0864C285.223 17.5114 282.835 16.3268 280.829 14.6335C280.758 14.8362 280.687 15.039 280.62 15.2439C282.694 16.9455 285.145 18.13 287.77 18.6993C290.394 19.2686 293.117 19.2062 295.713 18.5174C295.795 18.4957 295.877 18.474 295.958 18.4494C296.161 18.3922 296.361 18.3329 296.56 18.2707C299.636 17.284 302.361 15.4351 304.41 12.9451C304.271 12.7982 304.131 12.6512 303.989 12.5051C302.002 14.943 299.345 16.7501 296.344 17.7048Z" fill="white"/>
<path d="M298.991 25.6969C298.791 25.7687 298.59 25.8345 298.387 25.8975C298.171 25.9644 297.953 26.0284 297.734 26.0865C294.32 26.9885 290.705 26.7637 287.429 25.4457C284.154 24.1277 281.395 21.7875 279.565 18.7755C279.497 19.0462 279.428 19.314 279.365 19.5831C281.314 22.5554 284.153 24.8397 287.478 26.1117C290.804 27.3837 294.447 27.5786 297.89 26.6687C298.109 26.6106 298.327 26.5496 298.54 26.4806C298.746 26.4197 298.947 26.3538 299.148 26.285C303.19 24.8672 306.542 21.9707 308.523 18.1821C308.404 17.983 308.277 17.789 308.149 17.5922C306.27 21.3783 302.984 24.2855 298.991 25.6969Z" fill="white"/>
<path d="M151.197 232.353L140.677 232.401L152.177 228.932C154.52 219.204 153.783 208.285 153.783 208.285C153.783 208.285 131.018 208.839 122.672 217.96C114.326 227.081 116.851 235.212 123.56 241.313C130.268 247.415 138.621 249.177 146.967 240.056C148.825 238.026 150.192 235.325 151.197 232.353Z" fill="#F2F2F2"/>
<path d="M138.946 231.348L138.535 231.797C133.726 236.999 129.111 240.272 124.75 241.565C124.686 241.585 124.623 241.601 124.56 241.621L124.473 241.326L124.394 241.042C129.155 239.692 133.846 235.929 138.042 231.393C138.178 231.248 138.317 231.101 138.451 230.95C140.21 229.015 141.878 226.955 143.423 224.886C143.544 224.727 143.665 224.564 143.786 224.401C145.812 221.659 147.619 218.924 149.131 216.494C149.239 216.323 149.344 216.15 149.448 215.979C151.989 211.856 153.632 208.688 153.991 207.983C154.036 207.898 154.059 207.85 154.065 207.839L154.332 207.972L154.337 207.972L154.606 208.106C154.6 208.117 154.522 208.279 154.369 208.572C153.801 209.67 152.232 212.627 149.954 216.337C149.85 216.504 149.745 216.677 149.637 216.849C148.413 218.822 147 220.987 145.437 223.186C145.045 223.74 144.653 224.28 144.26 224.808C144.142 224.973 144.021 225.136 143.9 225.295C142.23 227.532 140.578 229.549 138.946 231.348Z" fill="white"/>
<path d="M149.954 216.337C149.786 216.221 149.616 216.103 149.448 215.979C148.99 215.641 148.55 215.28 148.129 214.898C146.335 213.271 144.93 211.262 144.017 209.021C143.816 209.054 143.614 209.087 143.408 209.12C144.352 211.495 145.827 213.623 147.722 215.343C148.171 215.751 148.641 216.136 149.131 216.494C149.297 216.617 149.467 216.735 149.637 216.849C151.033 217.795 152.566 218.524 154.182 219.012C154.198 218.802 154.214 218.597 154.23 218.396C152.711 217.923 151.27 217.23 149.954 216.337Z" fill="white"/>
<path d="M144.26 224.808C144.098 224.676 143.94 224.541 143.786 224.401C143.737 224.36 143.688 224.316 143.641 224.273C141.699 222.507 140.214 220.299 139.313 217.837C138.412 215.375 138.122 212.733 138.467 210.135C138.257 210.185 138.048 210.235 137.839 210.289C137.523 212.949 137.849 215.645 138.787 218.154C139.725 220.663 141.249 222.913 143.234 224.718C143.296 224.775 143.359 224.832 143.423 224.886C143.582 225.026 143.74 225.162 143.9 225.295C146.395 227.341 149.428 228.628 152.637 229.001C152.686 228.804 152.734 228.608 152.781 228.41C149.65 228.061 146.688 226.809 144.26 224.808Z" fill="white"/>
<path d="M138.946 231.348C138.778 231.219 138.614 231.086 138.451 230.95C138.278 230.805 138.106 230.657 137.939 230.505C135.332 228.128 133.568 224.974 132.909 221.515C132.251 218.055 132.735 214.476 134.288 211.313C134.022 211.402 133.759 211.489 133.498 211.582C132.043 214.823 131.65 218.439 132.374 221.916C133.098 225.393 134.903 228.554 137.531 230.95C137.699 231.102 137.868 231.252 138.042 231.393C138.204 231.533 138.369 231.666 138.535 231.797C141.917 234.422 146.172 235.667 150.44 235.281C150.544 235.074 150.639 234.862 150.737 234.649C146.525 235.119 142.296 233.935 138.946 231.348Z" fill="white"/>
<path d="M116.271 240.583L122.316 240.582L125.192 217.338L116.27 217.339L116.271 240.583Z" fill="#FFB6B6"/>
<path d="M114.729 238.615L126.634 238.615H126.634C128.646 238.615 130.576 239.412 131.998 240.83C133.421 242.248 134.22 244.172 134.22 246.178V246.423L114.73 246.424L114.729 238.615Z" fill="#2F2E41"/>
<path d="M68.4455 240.583L74.4903 240.582L77.3658 217.338L68.4445 217.339L68.4455 240.583Z" fill="#FFB6B6"/>
<path d="M66.9038 238.615L78.8079 238.615H78.8084C80.8204 238.615 82.7499 239.412 84.1726 240.83C85.5953 242.248 86.3946 244.172 86.3947 246.178V246.423L66.9041 246.424L66.9038 238.615Z" fill="#2F2E41"/>
<path d="M78.697 145.104L74.6229 148.842L70.0312 194.003L66.9402 229.963L76.2811 231.219L98.9376 169.777L115.515 230.928L126.692 231.219L119.274 151.396L78.697 145.104Z" fill="#2F2E41"/>
<path d="M98.3849 78.3256C104.794 78.3256 109.989 73.1459 109.989 66.7565C109.989 60.367 104.794 55.1873 98.3849 55.1873C91.9759 55.1873 86.7803 60.367 86.7803 66.7565C86.7803 73.1459 91.9759 78.3256 98.3849 78.3256Z" fill="#FFB9B9"/>
<path d="M92.446 61.3846C92.446 61.3846 91.0625 64.3695 96.5965 63.1756C96.5965 63.1756 98.6717 64.3695 98.6717 62.5786C98.6717 62.5786 101.439 65.5635 102.13 63.7725C102.822 61.9816 104.206 64.3695 104.206 64.3695L105.589 61.3846L106.973 63.1756H111.815C111.815 63.1756 113.198 51.2359 96.5965 52.4299C79.9946 53.6238 88.1618 72.541 88.1618 72.541C88.1618 72.541 88.2955 69.1454 89.679 70.9363C91.0625 72.7273 92.446 61.3846 92.446 61.3846Z" fill="#2F2E41"/>
<path d="M107.227 82.1014L90.8632 81.0801L76.281 84.9365L78.4913 122.398L74.6232 148.842C74.6232 148.842 95.8461 161.776 119.936 151.597L117.648 145.596C117.648 145.596 117.569 136.411 115.636 134.613C113.704 132.816 113.858 117.991 113.858 117.991L121.041 90.4457L107.227 82.1014Z" fill="#3F3D56"/>
<path d="M80.1763 86.1188L76.281 84.9365C76.281 84.9365 70.2144 85.1385 67.06 92.0187C63.9057 98.899 61.9335 108.73 61.9335 108.73L81.968 109.452L80.1763 86.1188Z" fill="#3F3D56"/>
<path d="M126.678 151.792L126.03 111.188L117.374 112.482L119.286 150.952C118.499 151.596 117.92 152.457 117.621 153.427C117.322 154.397 117.316 155.434 117.604 156.407C117.892 157.38 118.461 158.248 119.241 158.901C120.02 159.553 120.975 159.963 121.987 160.078C122.998 160.193 124.022 160.008 124.928 159.547C125.835 159.086 126.586 158.368 127.086 157.484C127.587 156.601 127.815 155.589 127.742 154.577C127.67 153.565 127.3 152.596 126.678 151.792Z" fill="#FFB9B9"/>
<path d="M116.169 93.9835L121.041 90.4457C121.041 90.4457 130.404 97.7456 130.436 113.806L117.374 116.964L109.989 106.375L116.169 93.9835Z" fill="#3F3D56"/>
<path d="M378.942 240.56L384.987 240.559L387.862 217.315L378.941 217.315L378.942 240.56Z" fill="#9E616A"/>
<path d="M377.4 238.592L389.304 238.591C391.316 238.592 393.246 239.388 394.669 240.807C396.092 242.225 396.891 244.149 396.891 246.154V246.4L377.401 246.401L377.4 238.592Z" fill="#2F2E41"/>
<path d="M343.164 235.435L348.928 237.253L358.701 215.955L350.196 213.273L343.164 235.435Z" fill="#9E616A"/>
<path d="M342.29 233.095L353.64 236.675C355.558 237.28 357.157 238.62 358.084 240.4C359.011 242.18 359.192 244.254 358.585 246.167L358.51 246.401L339.927 240.541L342.29 233.095Z" fill="#2F2E41"/>
<path d="M356.775 134.401L353.42 143.832L353.325 194.75L343.813 229.612L355.49 232.861L368.389 199.989L372.526 171.117L377.978 200.157L377.227 234.674H389.479L390.404 181.483C390.664 166.545 388.042 151.697 382.681 137.745L356.775 134.401Z" fill="#2F2E41"/>
<path d="M352.78 96.1954H372.583L380.858 104.445L383.33 138.544L353.42 143.342L343.813 110.807L349.045 96.9794L352.78 96.1954Z" fill="#010314"/>
<path d="M345.658 111.132L315.168 99.6957L314.374 94.968L333.603 78.747L340.004 83.5327L328.403 96.1954L349.045 96.9794L345.658 111.132Z" fill="#010314"/>
<path d="M337.301 85.3815C340.024 85.3815 342.232 83.1808 342.232 80.466C342.232 77.7513 340.024 75.5506 337.301 75.5506C334.578 75.5506 332.371 77.7513 332.371 80.466C332.371 83.1808 334.578 85.3815 337.301 85.3815Z" fill="#9E616A"/>
<path d="M348.736 86.6585L350.964 76.6427C351.759 73.0861 353.937 69.9894 357.021 68.0332C360.104 66.077 363.841 65.4213 367.409 66.2102C370.977 66.9991 374.085 69.168 376.05 72.2404C378.015 75.3128 378.676 79.0373 377.888 82.5954L375.66 92.6112C375.553 93.089 375.261 93.5051 374.847 93.7681C374.432 94.0312 373.931 94.1197 373.451 94.0142L350.143 88.8611C349.664 88.7546 349.247 88.4628 348.983 88.0499C348.719 87.637 348.63 87.1366 348.736 86.6585Z" fill="#2F2E41"/>
<path d="M361.271 90.832C366.855 90.832 371.381 86.3195 371.381 80.753C371.381 75.1866 366.855 70.6741 361.271 70.6741C355.688 70.6741 351.162 75.1866 351.162 80.753C351.162 86.3195 355.688 90.832 361.271 90.832Z" fill="#9E616A"/>
<path d="M347.601 76.7399C348.23 73.9258 349.953 71.4755 352.393 69.9266C354.832 68.3776 357.788 67.8565 360.612 68.4776L362.621 68.9218C365.444 69.5492 367.901 71.2672 369.455 73.6989C371.009 76.1307 371.531 79.0775 370.909 81.8929L370.864 82.0932L366.618 81.1544L366.069 76.7912L364.88 80.7702L362.685 80.285L362.408 78.0836L361.808 80.0912L347.556 76.9402L347.601 76.7399Z" fill="#2F2E41"/>
<path d="M357.809 91.7376C357.669 91.4244 357.621 91.0783 357.671 90.7391C357.72 90.4 357.864 90.0815 358.087 89.8205C361.114 86.2537 365.755 79.4522 362.821 73.9764L362.61 73.5829L374.099 76.1228L370.274 93.3178L359.429 92.8462C359.319 92.8415 359.21 92.8272 359.103 92.8036C358.818 92.7406 358.552 92.6111 358.327 92.4258C358.102 92.2405 357.925 92.0046 357.809 91.7376Z" fill="#2F2E41"/>
<path d="M484.413 247H0.587073C0.431668 247 0.282782 246.938 0.173053 246.828C0.0633239 246.718 0.00170898 246.57 0.00170898 246.415C0.00170898 246.26 0.0633239 246.111 0.173053 246.001C0.282782 245.892 0.431668 245.83 0.587073 245.829H484.413C484.569 245.829 484.718 245.891 484.828 246.001C484.938 246.111 485 246.26 485 246.415C485 246.57 484.938 246.719 484.828 246.829C484.718 246.938 484.569 247 484.413 247Z" fill="#CACACA"/>
<path d="M244.532 102.104H88.0803C86.8926 102.104 85.7166 102.337 84.6194 102.79C83.5222 103.243 82.5252 103.908 81.6854 104.745C80.8456 105.582 80.1794 106.576 79.7249 107.67C79.2705 108.764 79.0365 109.936 79.0365 111.12V148.632C79.0365 149.816 79.2704 150.989 79.7249 152.083C80.1794 153.177 80.8456 154.171 81.6854 155.008C82.5252 155.845 83.5221 156.509 84.6194 156.962C85.7166 157.415 86.8926 157.649 88.0803 157.649H90.3767V164.426C90.3767 164.837 90.499 165.239 90.7282 165.581C90.9573 165.923 91.2831 166.189 91.6642 166.347C92.0453 166.504 92.4646 166.545 92.8692 166.465C93.2738 166.385 93.6454 166.187 93.9371 165.896L102.21 157.649H244.532C245.72 157.649 246.896 157.415 247.993 156.962C249.09 156.509 250.087 155.845 250.927 155.008C251.767 154.171 252.433 153.177 252.887 152.083C253.342 150.989 253.576 149.816 253.576 148.632V111.12C253.576 109.936 253.342 108.764 252.887 107.67C252.433 106.576 251.767 105.582 250.927 104.745C250.087 103.908 249.09 103.243 247.993 102.79C246.896 102.337 245.72 102.104 244.532 102.104Z" fill="#E6E6E6"/>
<path d="M206.905 152.979H88.0804C86.9245 152.977 85.8162 152.519 84.9989 151.704C84.1815 150.889 83.7218 149.785 83.7205 148.632V111.12C83.7218 109.968 84.1815 108.863 84.9989 108.048C85.8162 107.233 86.9243 106.775 88.0801 106.774H244.532C245.688 106.775 246.796 107.233 247.613 108.048C248.431 108.863 248.891 109.968 248.892 111.12C248.879 122.218 244.452 132.858 236.58 140.705C228.709 148.552 218.037 152.966 206.905 152.979Z" fill="white"/>
<path d="M199.505 114.884H133.436C131.802 114.884 130.478 116.205 130.478 117.833V117.834C130.478 119.462 131.802 120.783 133.436 120.783H199.505C201.139 120.783 202.463 119.462 202.463 117.833C202.463 116.205 201.139 114.884 199.505 114.884Z" fill="#010314"/>
<path d="M213.557 126.681H119.384C117.751 126.681 116.426 128.002 116.426 129.631V129.631C116.426 131.259 117.751 132.58 119.384 132.58H213.557C215.191 132.58 216.515 131.259 216.515 129.631C216.515 128.002 215.191 126.681 213.557 126.681Z" fill="#E6E6E6"/>
<path d="M213.557 138.478H119.384C117.751 138.478 116.426 139.799 116.426 141.428V141.428C116.426 143.056 117.751 144.377 119.384 144.377H213.557C215.191 144.377 216.515 143.056 216.515 141.428C216.515 139.799 215.191 138.478 213.557 138.478Z" fill="#E6E6E6"/>
<path d="M467.428 128.223H354.288C353.429 128.223 352.579 128.392 351.785 128.719C350.992 129.047 350.271 129.527 349.664 130.133C349.056 130.738 348.575 131.457 348.246 132.248C347.917 133.039 347.748 133.887 347.748 134.743V161.871C347.748 162.727 347.917 163.575 348.246 164.366C348.575 165.157 349.056 165.876 349.664 166.481C350.271 167.087 350.992 167.567 351.785 167.895C352.579 168.222 353.429 168.391 354.288 168.391H355.949V173.292C355.949 173.589 356.037 173.88 356.203 174.127C356.369 174.375 356.604 174.567 356.88 174.681C357.156 174.795 357.459 174.825 357.751 174.767C358.044 174.709 358.313 174.565 358.524 174.355L364.506 168.391H467.428C468.287 168.391 469.138 168.222 469.931 167.895C470.725 167.567 471.446 167.087 472.053 166.481C472.66 165.876 473.142 165.157 473.471 164.366C473.799 163.575 473.969 162.727 473.969 161.871V134.743C473.969 133.887 473.799 133.039 473.471 132.248C473.142 131.457 472.66 130.738 472.053 130.133C471.446 129.527 470.725 129.047 469.931 128.719C469.138 128.392 468.287 128.223 467.428 128.223Z" fill="#E6E6E6"/>
<path d="M467.429 165.082H354.288C353.434 165.081 352.615 164.743 352.012 164.14C351.408 163.538 351.068 162.722 351.067 161.871V134.743C351.068 133.892 351.408 133.075 352.012 132.473C352.615 131.871 353.434 131.533 354.288 131.532H440.218C448.287 131.541 456.022 134.74 461.727 140.428C467.432 146.116 470.641 153.827 470.65 161.871C470.649 162.722 470.309 163.538 469.705 164.14C469.101 164.743 468.283 165.081 467.429 165.082Z" fill="white"/>
<path d="M434.866 137.465H387.088C385.907 137.465 384.949 138.42 384.949 139.598C384.949 140.776 385.907 141.731 387.088 141.731H434.866C436.048 141.731 437.006 140.776 437.006 139.598C437.006 138.42 436.048 137.465 434.866 137.465Z" fill="#010314"/>
<path d="M445.028 145.996H376.926C375.745 145.996 374.787 146.951 374.787 148.129C374.787 149.307 375.745 150.262 376.926 150.262H445.028C446.21 150.262 447.168 149.307 447.168 148.129C447.168 146.951 446.21 145.996 445.028 145.996Z" fill="#E6E6E6"/>
<path d="M445.028 154.528H376.926C375.745 154.528 374.787 155.482 374.787 156.66C374.787 157.838 375.745 158.793 376.926 158.793H445.028C446.21 158.793 447.168 157.838 447.168 156.66C447.168 155.482 446.21 154.528 445.028 154.528Z" fill="#E6E6E6"/>
<path d="M226.096 32.8633H339.236C340.095 32.8632 340.945 33.0319 341.739 33.3596C342.532 33.6872 343.253 34.1675 343.86 34.773C344.468 35.3784 344.949 36.0972 345.278 36.8883C345.607 37.6793 345.776 38.5272 345.776 39.3834V66.5109C345.776 67.3672 345.607 68.215 345.278 69.0061C344.949 69.7972 344.468 70.5159 343.86 71.1214C343.253 71.7269 342.532 72.2071 341.739 72.5348C340.945 72.8625 340.095 73.0311 339.236 73.0311H337.575V77.9322C337.575 78.2296 337.487 78.5203 337.321 78.7676C337.155 79.0148 336.92 79.2075 336.644 79.3214C336.368 79.4352 336.065 79.4649 335.773 79.4069C335.48 79.3489 335.211 79.2057 335 78.9954L329.018 73.0311H226.096C225.237 73.0311 224.386 72.8625 223.593 72.5348C222.799 72.2071 222.078 71.7269 221.471 71.1214C220.864 70.516 220.382 69.7972 220.053 69.0061C219.725 68.215 219.555 67.3672 219.555 66.5109V39.3834C219.555 38.5272 219.725 37.6793 220.053 36.8883C220.382 36.0972 220.864 35.3784 221.471 34.773C222.078 34.1675 222.799 33.6872 223.593 33.3596C224.386 33.0319 225.237 32.8633 226.096 32.8633Z" fill="#E6E6E6"/>
<path d="M339.236 69.7221H253.306C245.238 69.7131 237.503 66.5138 231.798 60.8262C226.093 55.1386 222.884 47.4272 222.874 39.3836C222.875 38.5322 223.215 37.7159 223.819 37.1138C224.423 36.5117 225.241 36.173 226.096 36.172H339.236C340.09 36.173 340.909 36.5116 341.512 37.1137C342.116 37.7157 342.456 38.532 342.457 39.3834V66.5108C342.456 67.3622 342.116 68.1785 341.512 68.7805C340.909 69.3826 340.09 69.7212 339.236 69.7221Z" fill="white"/>
<path d="M258.658 46.371L306.436 46.371C307.618 46.371 308.575 45.4161 308.575 44.2382C308.575 43.0603 307.618 42.1054 306.436 42.1054L258.658 42.1054C257.476 42.1054 256.518 43.0603 256.518 44.2382C256.518 45.4161 257.476 46.371 258.658 46.371Z" fill="#010314"/>
<path d="M248.496 54.9022L316.598 54.9022C317.779 54.9022 318.737 53.9473 318.737 52.7694C318.737 51.5915 317.779 50.6366 316.598 50.6366L248.496 50.6366C247.314 50.6366 246.357 51.5915 246.357 52.7694C246.357 53.9473 247.314 54.9022 248.496 54.9022Z" fill="#E6E6E6"/>
<path d="M248.496 63.4335L316.598 63.4335C317.779 63.4335 318.737 62.4786 318.737 61.3007C318.737 60.1227 317.779 59.1679 316.598 59.1679L248.496 59.1679C247.314 59.1679 246.357 60.1227 246.357 61.3007C246.357 62.4786 247.314 63.4335 248.496 63.4335Z" fill="#E6E6E6"/>
<path d="M95.7073 101.357C95.7073 99.9879 95.1619 98.6751 94.191 97.7072C93.2201 96.7392 91.9033 96.1955 90.5303 96.1955C89.1573 96.1955 87.8405 96.7392 86.8696 97.7072C85.8987 98.6751 85.3533 99.9879 85.3533 101.357C85.3533 101.407 85.3593 101.456 85.3608 101.506L76.281 110.558L76.9715 108.976L66.6174 108.484L65.107 119.383C64.9747 120.389 65.1589 121.411 65.6343 122.308C66.1097 123.206 66.8527 123.934 67.7609 124.392C68.669 124.85 69.6974 125.016 70.7042 124.866C71.7109 124.717 72.6463 124.26 73.3812 123.558L91.279 106.458C92.5086 106.279 93.6326 105.666 94.4457 104.729C95.2588 103.793 95.7066 102.595 95.7073 101.357Z" fill="#FFB9B9"/>
<path d="M371.795 96.4018L404.048 100.974L405.851 105.417L390.609 125.41L383.32 122.122L391.889 107.252L371.568 110.951L371.795 96.4018Z" fill="#010314"/>
<path d="M386.113 131.095C388.836 131.095 391.044 128.894 391.044 126.18C391.044 123.465 388.836 121.264 386.113 121.264C383.39 121.264 381.183 123.465 381.183 126.18C381.183 128.894 383.39 131.095 386.113 131.095Z" fill="#9E616A"/>
</g>
<defs>
<clipPath id="clip0_2_46">
<rect width="485" height="247" fill="white"/>
</clipPath>
</defs>
</svg>
