<svg width="16" height="17" viewBox="0 0 16 17" fill="none" xmlns="http://www.w3.org/2000/svg">
<path d="M12.3133 11.72L12.5733 13.8267C12.64 14.38 12.0467 14.7667 11.5733 14.48L8.78001 12.82C8.47334 12.82 8.17334 12.8 7.88001 12.76C8.38533 12.1743 8.66437 11.427 8.66667 10.6534C8.66667 8.76004 7.02667 7.22671 5.00001 7.22671C4.22667 7.22671 3.51334 7.44671 2.92001 7.83337C2.90001 7.66671 2.89334 7.50004 2.89334 7.32671C2.89334 4.29337 5.52667 1.83337 8.78001 1.83337C12.0333 1.83337 14.6667 4.29337 14.6667 7.32671C14.6667 9.12671 13.74 10.72 12.3133 11.72Z" stroke="#010314" stroke-linecap="round" stroke-linejoin="round"/>
<path d="M8.66668 10.6534C8.66668 11.4467 8.37334 12.18 7.88001 12.76C7.22001 13.56 6.17334 14.0734 5.00001 14.0734L3.26001 15.1067C2.96668 15.2867 2.59334 15.04 2.63334 14.7L2.80001 13.3867C1.90668 12.7667 1.33334 11.7734 1.33334 10.6534C1.33334 9.48002 1.96001 8.44668 2.92001 7.83335C3.51334 7.44668 4.22668 7.22668 5.00001 7.22668C7.02668 7.22668 8.66668 8.76002 8.66668 10.6534Z" stroke="#010314" stroke-linecap="round" stroke-linejoin="round"/>
</svg>
