<svg width="16" height="17" viewBox="0 0 16 17" fill="none" xmlns="http://www.w3.org/2000/svg">
<path d="M4.98666 12.7334L7.05333 14.3334C7.32 14.6001 7.92 14.7334 8.32 14.7334H10.8533C11.6533 14.7334 12.52 14.1334 12.72 13.3334L14.32 8.46673C14.6533 7.53339 14.0533 6.73339 13.0533 6.73339H10.3867C9.98666 6.73339 9.65333 6.40006 9.72 5.93339L10.0533 3.80006C10.1867 3.20006 9.78666 2.53339 9.18666 2.33339C8.65333 2.13339 7.98666 2.40006 7.72 2.80006L4.98666 6.86673" stroke="#010314" stroke-miterlimit="10"/>
<path d="M1.58667 12.7333V6.20002C1.58667 5.26668 1.98667 4.93335 2.92 4.93335H3.58667C4.52 4.93335 4.92 5.26668 4.92 6.20002V12.7333C4.92 13.6667 4.52 14 3.58667 14H2.92C1.98667 14 1.58667 13.6667 1.58667 12.7333Z" stroke="#010314" stroke-linecap="round" stroke-linejoin="round"/>
</svg>
