<svg width="36" height="36" viewBox="0 0 36 36" fill="none" xmlns="http://www.w3.org/2000/svg">
<path d="M13.7385 16.305C13.5885 16.29 13.4085 16.29 13.2435 16.305C11.5218 16.2465 9.89049 15.5202 8.69497 14.2799C7.49945 13.0396 6.83364 11.3827 6.83853 9.65999C6.83853 5.98498 9.80853 2.99998 13.4985 2.99998C15.2629 2.96816 16.9676 3.63852 18.2377 4.8636C19.5078 6.08869 20.2392 7.76813 20.271 9.53249C20.3029 11.2968 19.6325 13.0016 18.4074 14.2717C17.1823 15.5418 15.5029 16.2732 13.7385 16.305Z" stroke="#010314" stroke-width="3" stroke-linecap="round" stroke-linejoin="round"/>
<path opacity="0.4" d="M24.6165 6C27.5265 6 29.8665 8.355 29.8665 11.25C29.8665 14.085 27.6165 16.395 24.8115 16.5C24.6819 16.485 24.5511 16.485 24.4215 16.5" stroke="#010314" stroke-width="3" stroke-linecap="round" stroke-linejoin="round"/>
<path d="M6.23849 21.84C2.60849 24.27 2.60849 28.23 6.23849 30.645C10.3635 33.405 17.1285 33.405 21.2535 30.645C24.8835 28.215 24.8835 24.255 21.2535 21.84C17.1435 19.095 10.3785 19.095 6.23849 21.84Z" stroke="#010314" stroke-width="3" stroke-linecap="round" stroke-linejoin="round"/>
<path opacity="0.4" d="M27.51 30C28.59 29.775 29.61 29.34 30.45 28.695C32.79 26.94 32.79 24.045 30.45 22.29C29.625 21.66 28.62 21.24 27.555 21" stroke="#010314" stroke-width="3" stroke-linecap="round" stroke-linejoin="round"/>
</svg>
