<svg width="175" height="175" viewBox="0 0 175 175" fill="none" xmlns="http://www.w3.org/2000/svg">
<path d="M87.5 0C39.1562 0 0 39.1562 0 87.5C0 112 10.2812 135.352 28.3281 151.922C29.8047 153.289 31.2812 154.547 32.8125 155.805V141.914C32.8125 93.6797 142.188 93.6797 142.188 141.914V155.805C143.719 154.602 145.25 153.289 146.672 151.922C182.273 119.219 184.625 63.875 151.922 28.2734C135.352 10.2813 112 0 87.5 0ZM87.5 96.25C69.125 96.25 54.1953 81.3203 54.1953 62.9453C54.1953 44.5703 69.125 29.6406 87.5 29.6406C105.875 29.6406 120.805 44.5703 120.805 62.9453C120.805 81.3203 105.875 96.25 87.5 96.25Z" fill="#AEAFB0"/>
</svg>
